<svg xmlns="http://www.w3.org/2000/svg" viewBox="0 0 371.14 229.64"><defs><style>.cls-1{fill:#fec700;}.cls-2{fill:#fff;}.cls-3{fill:#daedf9;}.cls-4{fill:#ecbdaa;}.cls-5{fill:#372a1c;}.cls-6{fill:#e27f68;}.cls-7{fill:#000100;}.cls-8{fill:#3e4479;}.cls-9{fill:#21b4c0;}.cls-10{fill:#e5c416;}</style></defs><title>ayuda_img</title><g id="Capa_2" data-name="Capa 2"><g id="Capa_1-2" data-name="Capa 1"><path class="cls-1" d="M349.08,0H94.59A22.06,22.06,0,0,0,72.53,22.05v44.7a22.06,22.06,0,0,0,22.06,22h6.49s-1.29,14,13.37,18.14a1.91,1.91,0,0,0,2.29-2.53C115,99.93,113,92.13,118.21,88.8H349.08a22.06,22.06,0,0,0,22.06-22V22.05A22.06,22.06,0,0,0,349.08,0Z"/><path class="cls-2" d="M223.79,25.05H91.73a1.31,1.31,0,0,1-1.31-1.3h0a1.31,1.31,0,0,1,1.31-1.31H223.79a1.31,1.31,0,0,1,1.3,1.31h0A1.3,1.3,0,0,1,223.79,25.05Z"/><path class="cls-2" d="M223.79,33.18H91.73a1.31,1.31,0,0,1-1.31-1.3h0a1.31,1.31,0,0,1,1.31-1.3H223.79a1.3,1.3,0,0,1,1.3,1.3h0A1.3,1.3,0,0,1,223.79,33.18Z"/><path class="cls-2" d="M223.79,41.31H91.73A1.31,1.31,0,0,1,90.42,40h0a1.31,1.31,0,0,1,1.31-1.3H223.79a1.3,1.3,0,0,1,1.3,1.3h0A1.3,1.3,0,0,1,223.79,41.31Z"/><rect class="cls-2" x="90.42" y="46.84" width="84.28" height="2.6" rx="0.8" ry="0.8"/><circle class="cls-3" cx="319.98" cy="44.74" r="30.59" transform="translate(62.08 239.36) rotate(-45)"/><path class="cls-4" d="M310.27,43.82s-2-2.15-3.73,0-.19,8,3.73,6.87c0,0,2.5,7.55,10,7a12.21,12.21,0,0,0,11.18-11.91s-6-3-7.35-9.12S313.65,30.73,312,32.2C312,32.2,307.33,29.85,310.27,43.82Z"/><path class="cls-5" d="M311.3,27.5s-3.75-2.06-5.48,2.79.72,13.53.72,13.53a2.56,2.56,0,0,1,3.73,0S307.18,31.32,312,32.2c0,0,9.55-2.71,12,4.92,2.72,8.56,7.44,8.62,7.44,8.62a3.08,3.08,0,0,0,3.68-2.8c.44-3.38-.27-13.24-7.71-17.5S311.59,24.55,311.3,27.5Z"/><path class="cls-4" d="M317.56,57.49s-.07,5.13-.67,6.06c0,0,2.35,3.52,6.77.13a10.32,10.32,0,0,1-.71-6.53S319.67,58.22,317.56,57.49Z"/><path class="cls-6" d="M319.61,43.6s.86,4.41,1.55,5.39c1,1.47.44,2.82-1.55,2.68Z"/><path class="cls-7" d="M313.21,44.5c.43.44.8.88,1.17,1.25a1.8,1.8,0,0,0,1,.63c.24,0,.62-.26,1-.61s.71-.84,1.16-1.27a4.31,4.31,0,0,1-.43,1.78,2.41,2.41,0,0,1-.27.41,1.79,1.79,0,0,1-.35.39,1.69,1.69,0,0,1-1.12.43,2.11,2.11,0,0,1-1.71-1.24A3.68,3.68,0,0,1,313.21,44.5Z"/><path class="cls-7" d="M322.47,44.5c.43.44.8.88,1.17,1.25a1.8,1.8,0,0,0,1,.63c.24,0,.62-.26,1-.61s.71-.84,1.16-1.27a4.16,4.16,0,0,1-.43,1.78,2.41,2.41,0,0,1-.27.41,1.79,1.79,0,0,1-.35.39,1.69,1.69,0,0,1-1.12.43,2.11,2.11,0,0,1-1.71-1.24A3.68,3.68,0,0,1,322.47,44.5Z"/><path class="cls-5" d="M317.55,40.29a24.2,24.2,0,0,0-2.5-.17,9.24,9.24,0,0,0-1.17.05c-.41,0-.82.1-1.33.12a2.51,2.51,0,0,1,1.07-1,3.08,3.08,0,0,1,1.43-.34,3.17,3.17,0,0,1,1.43.34A2.45,2.45,0,0,1,317.55,40.29Z"/><path class="cls-5" d="M327.13,40.29a24.2,24.2,0,0,0-2.5-.17,9.24,9.24,0,0,0-1.17.05c-.41,0-.82.1-1.33.12a2.57,2.57,0,0,1,1.07-1,3.12,3.12,0,0,1,1.44-.34,3.16,3.16,0,0,1,1.42.34A2.39,2.39,0,0,1,327.13,40.29Z"/><path class="cls-8" d="M304.27,71s3.44-9,12.62-7.45c0,0,2.41,3.19,6.77.13,0,0,9.93-.43,11.14,7.83C334.8,71.51,321,80.71,304.27,71Z"/><path class="cls-9" d="M22.05,122.63h254.5a22,22,0,0,1,22.05,22.05v44.7a22,22,0,0,1-22.05,22.05h-6.5s1.3,13.95-13.37,18.14A1.91,1.91,0,0,1,254.4,227c1.72-4.48,3.73-12.28-1.48-15.61H22.05A22,22,0,0,1,0,189.38v-44.7A22,22,0,0,1,22.05,122.63Z"/><path class="cls-2" d="M147.35,147.68H279.41a1.31,1.31,0,0,0,1.3-1.31h0a1.3,1.3,0,0,0-1.3-1.3H147.35a1.3,1.3,0,0,0-1.3,1.3h0A1.31,1.31,0,0,0,147.35,147.68Z"/><path class="cls-2" d="M147.35,155.81H279.41a1.3,1.3,0,0,0,1.3-1.3h0a1.31,1.31,0,0,0-1.3-1.31H147.35a1.31,1.31,0,0,0-1.3,1.31h0A1.3,1.3,0,0,0,147.35,155.81Z"/><path class="cls-2" d="M147.35,163.94H279.41a1.3,1.3,0,0,0,1.3-1.3h0a1.3,1.3,0,0,0-1.3-1.3H147.35a1.3,1.3,0,0,0-1.3,1.3h0A1.3,1.3,0,0,0,147.35,163.94Z"/><rect class="cls-2" x="196.44" y="169.47" width="84.28" height="2.6" rx="0.8" ry="0.8" transform="translate(477.15 341.54) rotate(180)"/><circle class="cls-3" cx="51.16" cy="167.37" r="30.59" transform="translate(-36.64 15.97) rotate(-13.11)"/><path class="cls-5" d="M50.94,145.24s-9.39-1.39-13,7.64-2.3,40.43-2.3,40.43H66.2s2.52-13.53.26-37.13a12.62,12.62,0,0,0-3.33-7.57C60.83,146.21,57,144.1,50.94,145.24Z"/><path class="cls-4" d="M49,179.8s-.07,5.13-.67,6.06c0,0,2.35,3.52,6.76.13a10.36,10.36,0,0,1-.7-6.53S51.07,180.53,49,179.8Z"/><path class="cls-4" d="M62.86,168.43s-.07,11.14-11.18,11.91c-11.55.8-11.55-13.15-11.55-13.15v-9.33s12.43,3.19,22.73,0C62.86,157.86,63.2,166,62.86,168.43Z"/><path class="cls-6" d="M51,167.37s.66,4.8,1.55,5.5.36,2.82-1.63,2.67Z"/><path class="cls-7" d="M44.62,166.81c.43.44.79.88,1.17,1.25s.77.65,1,.63.62-.26,1-.62.7-.83,1.16-1.26a4.1,4.1,0,0,1-.44,1.77,2.65,2.65,0,0,1-.26.42,1.55,1.55,0,0,1-.35.38,1.69,1.69,0,0,1-1.12.44,2.15,2.15,0,0,1-1.72-1.24A3.56,3.56,0,0,1,44.62,166.81Z"/><path class="cls-7" d="M53.88,166.81c.43.44.79.88,1.17,1.25a1.8,1.8,0,0,0,1,.63c.24,0,.62-.26,1-.62s.71-.83,1.16-1.26a4.1,4.1,0,0,1-.44,1.77,2.08,2.08,0,0,1-.26.42,1.55,1.55,0,0,1-.35.38,1.67,1.67,0,0,1-1.12.44,2.11,2.11,0,0,1-1.71-1.24A3.68,3.68,0,0,1,53.88,166.81Z"/><path class="cls-5" d="M49,162.6c-1-.08-1.73-.19-2.51-.18-.38,0-.76,0-1.17.05s-.82.11-1.32.13a2.48,2.48,0,0,1,1.06-1,3.12,3.12,0,0,1,1.44-.34,3.2,3.2,0,0,1,1.43.34A2.45,2.45,0,0,1,49,162.6Z"/><path class="cls-5" d="M58.55,162.6c-1-.08-1.73-.19-2.5-.18-.39,0-.77,0-1.17.05s-.82.11-1.33.13a2.45,2.45,0,0,1,1.07-1,3.08,3.08,0,0,1,1.43-.34,3.17,3.17,0,0,1,1.43.34A2.45,2.45,0,0,1,58.55,162.6Z"/><path class="cls-10" d="M35.68,193.31s3.44-9,12.62-7.45c0,0,2.4,3.19,6.76.13,0,0,9.94-.43,11.14,7.83C66.2,193.82,52.37,203,35.68,193.31Z"/><path class="cls-7" d="M45.53,168.46a.66.66,0,0,1-.37.38.55.55,0,0,1-.54,0A9.06,9.06,0,0,1,45.53,168.46Z"/><path class="cls-7" d="M46.27,169.11a.92.92,0,0,1-.29.58.75.75,0,0,1-.6.23C45.72,169.65,45.92,169.4,46.27,169.11Z"/><path class="cls-7" d="M45.08,167.77a.7.7,0,0,1-.52.13.52.52,0,0,1-.44-.3C44.46,167.68,44.71,167.66,45.08,167.77Z"/><path class="cls-7" d="M57.54,168.46a9.24,9.24,0,0,1,.92.36.57.57,0,0,1-.55,0A.66.66,0,0,1,57.54,168.46Z"/><path class="cls-7" d="M56.81,169.11c.34.29.55.54.89.81a.77.77,0,0,1-.61-.23A1,1,0,0,1,56.81,169.11Z"/><path class="cls-7" d="M58,167.77c.36-.11.61-.09,1-.17a.54.54,0,0,1-.45.3A.67.67,0,0,1,58,167.77Z"/></g></g></svg>