<svg xmlns="http://www.w3.org/2000/svg" xmlns:xlink="http://www.w3.org/1999/xlink" viewBox="0 0 467.62 295.7">
  <defs>
    <style>
      .cls-1 {
        fill: none;
      }

      .cls-2 {
        fill: #f4f4f9;
      }

      .cls-3 {
        fill: #fff;
      }

      .cls-4 {
        fill: #e6e5f4;
      }

      .cls-5 {
        opacity: 0.5;
        fill: url(#Degradado_sin_nombre_9218);
      }

      .cls-6 {
        fill: url(#Degradado_sin_nombre_17);
      }

      .cls-7 {
        opacity: 0.69;
        fill: url(#linear-gradient);
      }

      .cls-14, .cls-16, .cls-8 {
        isolation: isolate;
      }

      .cls-8 {
        fill: url(#Degradado_sin_nombre_61);
      }

      .cls-9 {
        fill: #fcc669;
      }

      .cls-10 {
        fill: url(#Degradado_sin_nombre_59);
      }

      .cls-11 {
        fill: #f6a356;
      }

      .cls-12 {
        fill: url(#Degradado_sin_nombre_59-2);
      }

      .cls-13 {
        fill: #fde082;
      }

      .cls-15 {
        clip-path: url(#clip-path);
      }

      .cls-16 {
        fill: url(#Degradado_sin_nombre_61-2);
      }

      .cls-17 {
        fill: url(#Degradado_sin_nombre_59-3);
      }

      .cls-18 {
        fill: url(#Degradado_sin_nombre_59-4);
      }

      .cls-19 {
        clip-path: url(#clip-path-2);
      }
    </style>
    <linearGradient id="Degradado_sin_nombre_9218" data-name="Degradado sin nombre 9218" x1="319.96" y1="200.33" x2="427.56" y2="200.33" gradientTransform="matrix(1, 0, 0, -1, 0, 474.88)" gradientUnits="userSpaceOnUse">
      <stop offset="0.01" stop-color="#154d9c" stop-opacity="0"/>
      <stop offset="1" stop-color="#20234a"/>
    </linearGradient>
    <linearGradient id="Degradado_sin_nombre_17" data-name="Degradado sin nombre 17" x1="97.41" y1="164.64" x2="379.3" y2="164.64" gradientUnits="userSpaceOnUse">
      <stop offset="0" stop-color="#1d3f8a"/>
      <stop offset="1" stop-color="#00aac3"/>
    </linearGradient>
    <linearGradient id="linear-gradient" x1="347.18" y1="173.41" x2="139.23" y2="173.41" gradientUnits="userSpaceOnUse">
      <stop offset="0" stop-color="#edf3fb"/>
      <stop offset="1" stop-color="#ecf6f8"/>
    </linearGradient>
    <linearGradient id="Degradado_sin_nombre_61" data-name="Degradado sin nombre 61" x1="303.79" y1="252.06" x2="400.01" y2="252.06" gradientUnits="userSpaceOnUse">
      <stop offset="0" stop-color="#ffda16"/>
      <stop offset="1" stop-color="#f59a26"/>
    </linearGradient>
    <linearGradient id="Degradado_sin_nombre_59" data-name="Degradado sin nombre 59" x1="303.79" y1="241.15" x2="400.01" y2="241.15" gradientUnits="userSpaceOnUse">
      <stop offset="0" stop-color="#ffda16"/>
      <stop offset="1" stop-color="#f8ed72"/>
    </linearGradient>
    <linearGradient id="Degradado_sin_nombre_59-2" x1="311.51" y1="241.15" x2="392.28" y2="241.15" xlink:href="#Degradado_sin_nombre_59"/>
    <clipPath id="clip-path">
      <polygon class="cls-1" points="351.84 257.52 326.05 232.62 345.32 222.45 371.11 247.35 351.84 257.52"/>
    </clipPath>
    <linearGradient id="Degradado_sin_nombre_61-2" x1="341.83" y1="248.33" x2="437.03" y2="248.33" xlink:href="#Degradado_sin_nombre_61"/>
    <linearGradient id="Degradado_sin_nombre_59-3" x1="344.44" y1="237.92" x2="437.78" y2="237.92" gradientTransform="translate(501.71 -206.31) rotate(72.67)" xlink:href="#Degradado_sin_nombre_59"/>
    <linearGradient id="Degradado_sin_nombre_59-4" x1="351.93" y1="237.92" x2="430.29" y2="237.92" gradientTransform="translate(501.71 -206.31) rotate(72.67)" xlink:href="#Degradado_sin_nombre_59"/>
    <clipPath id="clip-path-2">
      <polygon class="cls-1" points="395.95 257.52 370.16 232.62 389.43 222.45 415.22 247.35 395.95 257.52"/>
    </clipPath>
  </defs>
  <title>svg_gift</title>
  <g id="Capa_2" data-name="Capa 2">
    <g id="ayuda">
      <g>
        <g>
          <path class="cls-2" d="M285.94,97.83c3.43,51.68-42.08,97-93.78,93.78-49.28-3.07-91.07-45.29-93.77-93.78-2.88-51.71,42-95.7,93.77-93.78C237.21,5.73,282.44,45.16,285.94,97.83Z"/>
          <path class="cls-2" d="M459.93,198.24c2.51,37.83-30.81,71-68.65,68.65-36.08-2.24-66.68-33.15-68.66-68.65-2.11-37.86,30.77-70.07,68.66-68.66C424.26,130.81,457.37,159.68,459.93,198.24Z"/>
          <path class="cls-2" d="M297.73,20.52c.75,11.29-9.2,21.2-20.5,20.5-10.78-.67-19.91-9.9-20.5-20.5C256.1,9.21,265.91-.41,277.23,0,287.08.38,297,9,297.73,20.52Z"/>
          <path class="cls-2" d="M136.5,188.8a12.79,12.79,0,0,1-13.33,13.34,14.56,14.56,0,0,1-13.34-13.34,12.93,12.93,0,0,1,13.34-13.33A14.48,14.48,0,0,1,136.5,188.8Z"/>
        </g>
        <path class="cls-3" d="M129.72,239.68c-2.15,0-4.29-.07-6.44-.2C61.93,235.67,9.26,183,5.87,122.07c-1.69-30.22,10-60.43,32-82.88C59.64,17,89.1,4.54,119.26,4.54c1.35,0,2.7,0,4,.07,27.74,1,56.25,13.71,78.23,34.77C224.75,61.62,238.67,91,240.73,122c2,30.71-9.84,61.43-32.59,84.28C186.81,227.72,158.54,239.68,129.72,239.68ZM119.26,5.26c-30,0-59.24,12.41-80.85,34.43C16.51,62,4.91,92,6.58,122,10,182.6,62.33,235,123.32,238.76c30.82,1.94,61.54-10.1,84.31-33,22.61-22.7,34.41-53.22,32.39-83.72C235.39,52.48,175.82,7.29,123.29,5.33,122,5.28,120.6,5.26,119.26,5.26Z"/>
        <path class="cls-3" d="M169.19,295.7c-2,0-4-.07-6.07-.19-57.79-3.59-107.41-53.22-110.61-110.62-1.58-28.47,9.41-56.93,30.18-78.08,21.4-21.8,50.73-33.69,80.47-32.57,26.13,1,53,12.91,73.69,32.75,21.87,21,35,48.61,36.93,77.86,1.92,28.93-9.27,57.87-30.71,79.4C223,284.43,196.34,295.7,169.19,295.7ZM159.34,74.89A107.16,107.16,0,0,0,83.2,107.31c-20.62,21-31.55,49.27-30,77.54,3.18,57.05,52.5,106.37,109.94,109.94,29,1.84,58-9.51,79.39-31.05,21.3-21.38,32.41-50.12,30.5-78.84C268.71,119.35,212.61,76.8,163.13,75,161.87,74.91,160.6,74.89,159.34,74.89Z"/>
        <path class="cls-4" d="M465.12,58c-3.85-2.39-11.21,1.79-19,6.22-6.27,3.56-12.75,7.24-17.3,7.44-2.66.11-4.28-.38-4.78-1.48-.85-1.87.6-6.7,12.4-19,.86-.91,1.77-1.85,2.72-2.83,9.92-10.28,23.52-24.37,22.11-34.55-.45-3.28-2.41-5.95-5.83-7.94-5.1-3-10.16-3.66-15.06-2C431,6.86,422.16,18.2,413.48,38.42c-.9,2.08-1.81,4.27-2.73,6.47-4.64,11.13-10.41,25-14.44,25h0c-1.1,0-2.16-1.19-3.15-3.53-1.75-4.18-3.1-10.12-4.41-15.86-2.24-9.86-4.18-18.38-8.06-19.24-1.61-.36-3.27.59-5.08,2.91-6.69,8.58-6,25.22-5.32,41.31.6,14.37,1.22,29.23-3.46,37.84-2,3.68-2.85,3.64-2.95,3.65-1.06-.18-1.88-5.39-2.48-9.19-1.15-7.29-2.58-16.36-7.28-18.57-1.93-.91-4.23-.59-6.83.94-7.68,4.55-8,13.28-8.61,29.15A350.26,350.26,0,0,1,335,161.87c-4.34,28.21-6.71,58-6.73,58.32l-.1,1.27q-5.25,12-10.5,24.51l1.33.55q5.76-13.78,11.54-26.87c4.27-4.41,21.43-21.58,41.69-33.75,12.41-7.46,22.87-10.5,31.27-13,11.29-3.28,19.45-5.65,24.53-16.22,1.78-3.7,2-6.32.79-8-2.24-3-8.6-2-15.33-1-5.77.89-12.31,1.89-14-.51-1-1.45-.31-4.29,2-8.43,11.4-20,29.22-35.07,43.55-47.16C457.42,81.2,467.17,73,467.58,65.68,467.81,61.66,467,59.15,465.12,58Zm-21,32.54c-14.41,12.15-32.34,27.29-43.86,47.54-2.69,4.73-3.34,8-2,10,2.15,3.13,8.57,2.15,15.36,1.11,5.73-.88,12.24-1.87,14,.45.89,1.2.57,3.4-.93,6.53-4.81,10-12.3,12.17-23.64,15.47-8.48,2.46-19,5.54-31.61,13.09-17.41,10.46-32.55,24.58-39.3,31.27C384,99.37,435.14,26.5,435.69,25.72l-1.17-.83c-.56.79-52.37,74.64-104.62,192.59.69-8,2.92-32.23,6.47-55.39a350,350,0,0,0,3.73-42.75c.6-15.86.9-23.82,7.91-28a7.62,7.62,0,0,1,3.78-1.26,4,4,0,0,1,1.71.38c4,1.89,5.37,10.54,6.47,17.5,1,6.58,1.67,10,3.66,10.37,1.32.23,2.66-1.07,4.45-4.38,4.87-9,4.24-24,3.64-38.58-.67-15.83-1.35-32.2,5-40.36q2.13-2.73,3.64-2.4c3,.66,5.11,10,7,18.16,1.32,5.8,2.69,11.8,4.49,16.09,1.24,3,2.71,4.42,4.47,4.42h0c5,0,10.22-12.57,15.77-25.88.92-2.2,1.83-4.37,2.72-6.46,8.38-19.54,17.14-30.94,26-33.87C445.32,3.63,450,4.27,454.71,7c3.07,1.78,4.75,4,5.14,6.9,1.31,9.49-12,23.28-21.72,33.35-.95,1-1.87,1.93-2.73,2.84-10.19,10.67-14.22,17.23-12.67,20.64.77,1.69,2.85,2.48,6.15,2.32,4.89-.22,11.53-4,17.95-7.64,7.09-4,14.42-8.17,17.53-6.24,1.38.85,2,3,1.79,6.4C465.77,72.28,456.23,80.33,444.15,90.52Z"/>
        <path class="cls-4" d="M111.26,118.23c-13.51-13-8.74-55.48-24.13-65.65C75.62,45,80.27,71.72,77.38,84.92s-16-5-26.8-17.83C34.21,47.56,18,38.28,4,51.08S16.61,76,31.5,83.67c12.16,6.27,23,13.73,11.24,16.71C30,103.59-1.1,88.42,4,105.58c3.81,12.79,50.87,17.54,79.21,43.69,19.25,17.76-37.5,6.94-22.46,23.17,12.12,13.09,28.42,2.21,60.3,8.84C147.14,186.7,170.13,199,170.13,199s-8.16-25-18.08-48.31c-15.88-37.34-12.35-55.26-25.8-58C107.24,89,124.77,131.25,111.26,118.23Z"/>
        <path class="cls-3" d="M140.38,294l-.31-.65A16.06,16.06,0,0,0,148.29,279H149A16.79,16.79,0,0,1,140.38,294Z"/>
      </g>
      <path class="cls-5" d="M408,274.55c0,1.7-19.52,3.08-43.57,3.08s-43.58-1.38-43.58-3.08,19.51-3.08,43.58-3.08S408,272.84,408,274.55Z"/>
      <g>
        <path class="cls-6" d="M116.93,77.14H359.79A19.52,19.52,0,0,1,379.3,96.66v136a19.52,19.52,0,0,1-19.52,19.52H116.93a19.51,19.51,0,0,1-19.51-19.51v-136A19.51,19.51,0,0,1,116.93,77.14Z"/>
        <path class="cls-3" d="M136.75,137.44A23.21,23.21,0,1,1,160,114.23,23.24,23.24,0,0,1,136.75,137.44Zm0-43a19.8,19.8,0,1,0,19.8,19.8A19.82,19.82,0,0,0,136.75,94.43Z"/>
        <rect class="cls-7" x="179.85" y="100.3" width="117.01" height="146.22" rx="14.89"/>
        <path class="cls-3" d="M268,224.07a12.9,12.9,0,1,1,12.89-12.9A12.92,12.92,0,0,1,268,224.07Zm0-23.3a10.4,10.4,0,1,0,10.39,10.4A10.41,10.41,0,0,0,268,200.77Z"/>
        <polygon class="cls-3" points="267.15 216.25 261.3 210.39 263.06 208.62 267.15 212.72 272.89 206.98 274.66 208.74 267.15 216.25"/>
        <path class="cls-3" d="M260.19,132.32l-1.95,8.61H208.17v1.95l7.2,33.45v1h4.08l1,4.33H222a3.66,3.66,0,1,0,2.52,0h20.58a3.66,3.66,0,1,0,2.52,0h1.63V180.1H221.71l-.67-2.79H252.1v-1L258,149l3.42-15.08h21v-1.55Zm-34.83,52.75a2.12,2.12,0,1,1-2.12-2.11A2.12,2.12,0,0,1,225.36,185.07Zm23.1,0a2.12,2.12,0,1,1-2.12-2.11A2.12,2.12,0,0,1,248.46,185.07Zm-21.27-30.71h13.09l-.68,9.52H227.87Zm-1,9.52H214.44l-2.05-9.52h13.08Zm14.27-11.48H227.05l-.69-9.52h14.75Zm2.41-9.52h14.72l-2.05,9.52H242.14Zm-3.37,23-.68,9.52H228.7l-.69-9.52Zm1.72,0h11.43l-2.05,9.52H240.5Zm11.85-2H241.32l.68-9.52h13.08l-2,9.33Zm-28.38-21,.68,9.52H212l-2.05-9.52Zm-9.79,23h11.43l.69,9.52H216.91Z"/>
        <rect class="cls-3" x="232.49" y="229.88" width="11.73" height="1.49"/>
        <rect class="cls-3" x="232.49" y="130.13" width="11.73" height="1.49"/>
        <rect class="cls-3" x="197.16" y="204.58" width="29" height="3.87"/>
        <rect class="cls-3" x="197.16" y="212.01" width="42.93" height="3.87"/>
        <rect class="cls-3" x="309.32" y="160.4" width="45" height="14.79"/>
        <rect class="cls-3" x="309.32" y="179.28" width="45" height="8.79"/>
      </g>
      <g>
        <path class="cls-8" d="M400,241.15l-2.64,3.95c-2.3-3.86-6.12-7.48-11.46-10.56-18.78-10.85-49.24-10.85-68,0-5.2,3-9,6.52-11.28,10.27l-2.81-3.66v8.4h0c-.19,7.24,4.5,14.52,14.07,20,18.79,10.85,49.25,10.85,68,0,9.4-5.42,14.1-12.53,14.1-19.64h0Z"/>
        <ellipse class="cls-9" cx="351.9" cy="241.15" rx="48.11" ry="27.78"/>
        <ellipse class="cls-10" cx="351.9" cy="241.15" rx="48.11" ry="27.78"/>
        <path class="cls-11" d="M351.9,264.86c-10.42,0-20.83-2.29-28.76-6.87-7.76-4.48-12-10.46-12-16.84s4.27-12.36,12-16.84c15.86-9.16,41.67-9.16,57.53,0,7.76,4.48,12,10.46,12,16.84s-4.27,12.36-12,16.84h0C372.73,262.57,362.31,264.86,351.9,264.86Zm0-46.62c-10.27,0-20.54,2.26-28.36,6.77-7.5,4.33-11.62,10.06-11.62,16.14S316,253,323.54,257.29c15.64,9,41.08,9,56.71,0h0c7.5-4.33,11.63-10.06,11.63-16.14s-4.13-11.81-11.63-16.14C372.43,220.5,362.16,218.24,351.9,218.24Z"/>
        <ellipse class="cls-12" cx="351.9" cy="241.15" rx="40.39" ry="23.32"/>
        <path class="cls-11" d="M323.34,226.59c15.77-9.1,41.34-9.1,57.11,0,7.47,4.3,11.39,9.88,11.79,15.52.45-6.29-3.47-12.66-11.79-17.46-15.77-9.1-41.34-9.11-57.11,0-8.31,4.8-12.24,11.17-11.79,17.46C312,236.47,315.88,230.9,323.34,226.59Z"/>
        <path class="cls-13" d="M385.91,259c-18.78,10.85-49.24,10.84-68,0-9-5.19-13.67-11.93-14.05-18.73-.42,7.41,4.25,14.9,14.05,20.56,18.79,10.85,49.25,10.85,68,0,9.8-5.66,14.48-13.14,14.06-20.55C399.58,247,394.9,253.77,385.91,259Z"/>
      </g>
      <g class="cls-14">
        <g class="cls-15">
          <path class="cls-3" d="M351.27,249.38l-5.79-5.58,5-2.64a5.83,5.83,0,0,1,7,.75c1.82,1.79,1.38,3.47-1.08,4.77h0l-5.1,2.69m-9.06-8.83-5.38-5.2,4.64-2.45c2.43-1.27,4.8-1,6.51.63s1.28,3.3-1.08,4.55l0,0-4.64,2.45m-9.13-11.64-2.66,1.4,2.16,2.08-4.23,2.24,21.32,20.8,4.23-2.23,2.17,2.09,2.66-1.41-2.16-2.08,1.75-.92,2.16,2.08,2.65-1.4-2.18-2.1c4.94-2.71,5.54-6.54,2.24-9.76a10.65,10.65,0,0,0-10.08-2.47c2-1.91,1.79-4.83-.56-7-3-2.92-7.87-3.74-12.89-1.49l-2.18-2.11L334.85,228l2.15,2.08-1.75.93-2.17-2.09"/>
        </g>
      </g>
      <g>
        <path class="cls-16" d="M437,252.25l-3.69,3c-1-4.37-3.61-9-7.79-13.49-14.7-16-43.78-25-64.94-20.27-5.86,1.32-10.5,3.56-13.83,6.45l-1.59-4.33-2.51,8h0c-2.33,6.86,0,15.2,7.47,23.33,14.7,15.95,43.78,25,64.94,20.27,10.58-2.38,17.19-7.77,19.3-14.55h0Z"/>
        <ellipse class="cls-9" cx="391.11" cy="237.92" rx="27.78" ry="48.11" transform="translate(47.48 540.39) rotate(-72.67)"/>
        <ellipse class="cls-17" cx="391.11" cy="237.92" rx="27.78" ry="48.11" transform="translate(47.48 540.39) rotate(-72.67)"/>
        <path class="cls-11" d="M403.37,263.63c-16.15,0-34.55-7.16-44.73-18.2-6.08-6.59-8.37-13.57-6.47-19.67s7.76-10.52,16.5-12.49c17.87-4,42.5,3.67,54.91,17.14,6.07,6.59,8.37,13.57,6.47,19.66s-7.76,10.53-16.5,12.49A46.66,46.66,0,0,1,403.37,263.63ZM378.89,213a46.06,46.06,0,0,0-10,1c-8.45,1.9-14.1,6.14-15.91,11.94s.43,12.5,6.3,18.86c12.23,13.28,36.52,20.85,54.13,16.9,8.45-1.9,14.09-6.14,15.91-11.94s-.43-12.5-6.3-18.87C413,220.07,394.8,213,378.89,213Z"/>
        <ellipse class="cls-18" cx="391.11" cy="237.92" rx="23.32" ry="40.39" transform="translate(47.48 540.39) rotate(-72.67)"/>
        <path class="cls-11" d="M368.18,215.52c17.77-4,42.18,3.62,54.53,17,5.84,6.34,7.92,12.82,6.63,18.33,2.3-5.87.45-13.12-6.06-20.17-12.34-13.4-36.75-21-54.52-17-9.36,2.1-15,7-16.45,13.15C354.37,221.56,359.78,217.41,368.18,215.52Z"/>
        <path class="cls-13" d="M418.28,265.05c-21.17,4.76-50.24-4.32-64.95-20.27-7-7.63-9.49-15.45-7.84-22.06-2.6,6.95-.37,15.49,7.3,23.81,14.7,16,43.78,25,64.94,20.27,11-2.48,17.73-8.24,19.54-15.44C434.88,257.74,428.41,262.77,418.28,265.05Z"/>
      </g>
      <g class="cls-14">
        <g class="cls-19">
          <path class="cls-3" d="M395.38,249.38l-5.79-5.58,5-2.65a5.82,5.82,0,0,1,7,.76c1.83,1.78,1.38,3.47-1.07,4.76l0,0-5.11,2.69m-9.05-8.83-5.38-5.2,4.63-2.45c2.44-1.28,4.8-1,6.51.64s1.28,3.29-1.08,4.54l-.05,0-4.63,2.45m-9.13-11.64-2.67,1.4,2.16,2.08-4.23,2.24,21.33,20.8L398,253.2l2.16,2.09,2.66-1.4-2.16-2.08,1.76-.93,2.15,2.08,2.65-1.4-2.17-2.1c4.93-2.71,5.53-6.53,2.23-9.76a10.64,10.64,0,0,0-10.08-2.47c2-1.91,1.79-4.83-.56-7-3-2.92-7.87-3.74-12.88-1.49l-2.18-2.11L379,228l2.15,2.08-1.75.92-2.16-2.09"/>
        </g>
      </g>
    </g>
  </g>
</svg>
